<svg xmlns="http://www.w3.org/2000/svg" xmlns:xlink="http://www.w3.org/1999/xlink" width="12" height="20" viewBox="0 0 12 20"><defs><path id="74jwa" d="M236.25 5885c0 .69-.56 1.25-1.25 1.25s-1.25-.56-1.25-1.25.56-1.25 1.25-1.25 1.25.56 1.25 1.25zm3.25-2.5c0 .27-.23.5-.5.5h-8a.51.51 0 0 1-.5-.5v-11c0-.27.23-.5.5-.5h8c.27 0 .5.23.5.5zm-3-13.25c0 .14-.1.25-.25.25h-2.5a.25.25 0 0 1-.25-.25c0-.14.1-.25.25-.25h2.5c.14 0 .25.1.25.25zm4.5-.25c0-1.1-.9-2-2-2h-8c-1.1 0-2 .9-2 2v16c0 1.1.9 2 2 2h8c1.1 0 2-.9 2-2z"/></defs><g><g transform="translate(-229 -5867)"><use fill="#555" xlink:href="#74jwa"/></g></g></svg>