<svg xmlns="http://www.w3.org/2000/svg" xmlns:xlink="http://www.w3.org/1999/xlink" width="15" height="11" viewBox="0 0 15 11"><defs><path id="61wua" d="M242.93 5977.75c0 .13-.13.25-.27.25h-12.32c-.14 0-.27-.12-.27-.25v-6c.18.19.37.36.58.52 1.2.85 2.4 1.73 3.56 2.64.63.49 1.41 1.09 2.28 1.09h.02c.87 0 1.65-.6 2.28-1.1 1.16-.9 2.36-1.78 3.56-2.63.21-.16.4-.33.58-.52zm0-8.21c0 .66-.69 1.53-1.23 1.93l-3.36 2.47c-.44.34-1.25 1.06-1.83 1.06h-.02c-.58 0-1.39-.72-1.83-1.06l-3.36-2.47a2.76 2.76 0 0 1-1.23-2.22c0-.13.13-.25.27-.25h12.32c.32 0 .27.34.27.54zm1.07-.29c0-.69-.6-1.25-1.34-1.25h-12.32c-.74 0-1.34.56-1.34 1.25v8.5c0 .69.6 1.25 1.34 1.25h12.32c.74 0 1.34-.56 1.34-1.25z"/></defs><g><g transform="translate(-229 -5968)"><use fill="#555" xlink:href="#61wua"/></g></g></svg>