<svg xmlns="http://www.w3.org/2000/svg" xmlns:xlink="http://www.w3.org/1999/xlink" width="9" height="16" viewBox="0 0 9 16"><defs><path id="q979a" d="M323.1 1987h-2.02c-2.27 0-3.73 1.55-3.73 3.94v1.81h-2.03a.32.32 0 0 0-.32.33v2.63c0 .18.14.33.32.33h2.03v6.63c0 .18.14.33.31.33h2.65c.18 0 .32-.15.32-.33v-6.63H323c.18 0 .32-.15.32-.33v-2.63a.33.33 0 0 0-.1-.23.31.31 0 0 0-.22-.1h-2.37v-1.54c0-.74.17-1.11 1.1-1.11h1.37c.17 0 .31-.15.31-.33v-2.44a.32.32 0 0 0-.31-.33z"/></defs><g><g transform="translate(-315 -1987)"><use fill="#fff" xlink:href="#q979a"/></g></g></svg>