<svg xmlns="http://www.w3.org/2000/svg" xmlns:xlink="http://www.w3.org/1999/xlink" width="17" height="16" viewBox="0 0 17 16"><defs><path id="fpcia" d="M377.73 1987h4.1v.09c0 .44-.82.52-1.38.6-.19.02-.57.06-.68.12 1.04.53 1.2 1.37 1.2 2.63 0 1.43-.57 2.18-1.19 2.71-.38.33-.68.59-.68.93 0 .34.41.69.89 1.1.78.65 1.85 1.56 1.85 3.08 0 1.57-.7 2.7-2.09 3.34-1.06.5-2.2.56-2.65.56h-.14-.09c-.69 0-4.13-.16-4.13-3.19 0-2.97 3.75-3.2 4.9-3.2h.03c-.67-.86-.53-1.72-.53-1.72h-.25c-.43 0-1.26-.06-1.98-.51-.88-.55-1.33-1.47-1.33-2.76 0-3.63 4.11-3.78 4.15-3.78zm-.14 9.54l-.27.01c-.79.06-1.51.34-2.04.8a1.97 1.97 0 0 0-.74 1.6c.08 1.21 1.42 1.93 3.06 1.81 1.61-.11 2.69-1 2.6-2.22-.07-1.14-1.1-2-2.6-2zm-.64-8.47c-.12 0-.23.02-.34.05-.47.13-.84.5-1.04 1.05-.21.57-.22 1.15-.04 1.82.32 1.2 1.2 2.06 2.09 2.06.12 0 .23-.01.34-.04.97-.26 1.58-1.7 1.18-3.06-.43-1.45-1.12-1.88-2.2-1.88zm11.77 4.86v1.63h-2.67v2.59h-1.7v-2.59h-2.67v-1.63h2.67v-2.59h1.7v2.59z"/></defs><g><g transform="translate(-372 -1987)"><use fill="#fff" xlink:href="#fpcia"/></g></g></svg>