<svg xmlns="http://www.w3.org/2000/svg" xmlns:xlink="http://www.w3.org/1999/xlink" width="14" height="14" viewBox="0 0 14 14"><defs><path id="aprwa" d="M408.18 1990.55h-3v9.45h3zm.2-2.92c-.02-.92-.65-1.63-1.68-1.63-1.03 0-1.7.7-1.7 1.63 0 .9.65 1.63 1.66 1.63h.02c1.05 0 1.7-.72 1.7-1.63zm10.62 6.95c0-2.9-1.48-4.25-3.45-4.25-1.6 0-2.32.91-2.71 1.56v-1.34h-3s.04.89 0 9.45h3v-5.27c0-.29.03-.57.1-.78.22-.56.71-1.14 1.54-1.14 1.08 0 1.52.87 1.52 2.14v5.05h3z"/></defs><g><g transform="translate(-405 -1986)"><use fill="#fff" xlink:href="#aprwa"/></g></g></svg>