<svg xmlns="http://www.w3.org/2000/svg" xmlns:xlink="http://www.w3.org/1999/xlink" width="17" height="14" viewBox="0 0 17 14"><defs><path id="lz73a" d="M357.97 1989.07a6.7 6.7 0 0 1-2.08.78c-.6-.62-1.45-1-2.4-1a3.24 3.24 0 0 0-3.2 3.9 9.4 9.4 0 0 1-6.75-3.33 3.17 3.17 0 0 0 1.02 4.26 3.35 3.35 0 0 1-1.5-.4v.04a3.22 3.22 0 0 0 2.64 3.13 3.38 3.38 0 0 1-1.48.05 3.28 3.28 0 0 0 3.06 2.22 6.7 6.7 0 0 1-4.86 1.32 9.48 9.48 0 0 0 5.03 1.43 9.13 9.13 0 0 0 9.33-9.07v-.42c.63-.44 1.2-1 1.63-1.64-.59.25-1.22.42-1.88.5.67-.4 1.2-1.02 1.44-1.77z"/></defs><g><g transform="translate(-342 -1988)"><use fill="#fff" xlink:href="#lz73a"/></g></g></svg>